<svg width="32" height="32" viewBox="0 0 32 32" fill="none" xmlns="http://www.w3.org/2000/svg">
  <rect width="32" height="32" rx="16" fill="url(#gradient)"/>
  <path d="M20 12C18.5 11.5 17.5 10.5 17 9C16.5 10.5 15.5 11.5 14 12C15.5 12.5 16.5 13.5 17 15C17.5 13.5 18.5 12.5 20 12Z" fill="white"/>
  <path d="M17 15C16.5 13.5 15.5 12.5 14 12C15.5 11.5 16.5 10.5 17 9C17.5 10.5 18.5 11.5 20 12C18.5 12.5 17.5 13.5 17 15Z" fill="white"/>
  <path d="M24 18C21 17.5 19.5 16 19 13C18.5 16 17 17.5 14 18C17 18.5 18.5 20 19 23C19.5 20 21 18.5 24 18Z" stroke="white" stroke-width="1.5" fill="none"/>
  <path d="M19 20C18.5 18.5 17.5 17.5 16 17C17.5 16.5 18.5 15.5 19 14C19.5 15.5 20.5 16.5 22 17C20.5 17.5 19.5 18.5 19 20Z" stroke="white" stroke-width="1.5" fill="none"/>
  <path d="M26 8C24.5 7.5 23.5 6.5 23 5C22.5 6.5 21.5 7.5 20 8C21.5 8.5 22.5 9.5 23 11C23.5 9.5 24.5 8.5 26 8Z" stroke="white" stroke-width="1.5" fill="none"/>
  <path d="M23 10C22.5 8.5 21.5 7.5 20 7C21.5 6.5 22.5 5.5 23 4C23.5 5.5 24.5 6.5 26 7C24.5 7.5 23.5 8.5 23 10Z" stroke="white" stroke-width="1.5" fill="none"/>
  <path d="M22 24C20 23.5 18.5 22 18 20C17.5 22 16 23.5 14 24C16 24.5 17.5 26 18 28C18.5 26 20 24.5 22 24Z" stroke="white" stroke-width="2" fill="none"/>
  <defs>
    <linearGradient id="gradient" x1="0%" y1="0%" x2="0%" y2="100%">
      <stop offset="0%" style="stop-color:#3B82F6;stop-opacity:1" />
      <stop offset="100%" style="stop-color:#1E40AF;stop-opacity:1" />
    </linearGradient>
  </defs>
</svg>